<?xml version="1.0" encoding="UTF-8" standalone="no"?>
<!-- Generator: Gravit.io -->
<svg xmlns="http://www.w3.org/2000/svg" xmlns:xlink="http://www.w3.org/1999/xlink" style="isolation:isolate" viewBox="0 0 2048 2048" width="2048pt" height="2048pt"><defs><clipPath id="_clipPath_ZREsFlxBmSx251kEiyVae7j3o2g2BvBK"><rect width="2048" height="2048"/></clipPath></defs><g clip-path="url(#_clipPath_ZREsFlxBmSx251kEiyVae7j3o2g2BvBK)"><clipPath id="_clipPath_bhZllzbGu94uIdlJ8ZGQzu7zwcXuQ4wI"><rect x="0" y="0" width="2048" height="2048" transform="matrix(1,0,0,1,0,0)" fill="rgb(255,255,255)"/></clipPath><g clip-path="url(#_clipPath_bhZllzbGu94uIdlJ8ZGQzu7zwcXuQ4wI)"><g><clipPath id="_clipPath_CoF8MFx1QncMvmd0PFIPpDS8BZJDM368"><rect x="0" y="0" width="2048" height="2048" transform="matrix(-1,0,0,-1,2048,2048)" fill="rgb(255,255,255)"/></clipPath><g clip-path="url(#_clipPath_CoF8MFx1QncMvmd0PFIPpDS8BZJDM368)"><g><g><path d=" M 1471.396 1083.828 L 1509.981 1106.106 L 1824.083 1287.45 L 1824.083 1023.998 L 1824.083 562.07 L 1424.041 331.105 L 1023.999 100.141 L 623.956 331.105 L 223.914 562.07 L 223.914 1023.998 L 223.914 1287.45 L 538.016 1106.106 L 577.13 1083.523 C 579.7 1028.377 592.292 975.776 613.141 927.528 L 540.866 803.457 C 563.644 767.007 590.433 733.301 620.622 702.966 L 758.775 744.39 C 801.155 713.096 849.265 689.087 901.267 674.242 L 953.559 539.471 C 974.443 536.881 995.682 535.421 1017.213 535.154 C 1038.752 534.888 1060.029 535.823 1080.979 537.897 L 1134.338 670.761 C 1188.613 684.512 1238.992 708.203 1283.393 739.8 L 1421.478 696.619 C 1451.068 725.42 1477.548 757.414 1500.356 792.052 L 1430.159 915.883 C 1454.129 967.275 1468.632 1023.996 1471.396 1083.828 Z " fill-rule="evenodd" fill="rgb(9,132,227)"/><path d=" M 789.319 1159.494 L 623.958 1254.965 L 223.918 1485.928 L 623.958 1716.892 L 1024 1947.856 L 1424.043 1716.892 L 1824.083 1485.928 L 1824.083 1485.928 L 1424.043 1254.965 L 1258.682 1159.494 C 1265.431 1137.096 1269.06 1113.352 1269.06 1088.766 C 1269.06 953.514 1159.252 843.706 1024 843.706 C 888.748 843.706 778.94 953.514 778.94 1088.766 C 778.94 1113.352 782.569 1137.097 789.319 1159.494 Z " fill="rgb(254,128,25)"/></g></g></g></g></g></g></svg>